Coordinates
version=1
nRows=16
nColumns=40
inDegrees=yes

Units are S.I. units (second, meters, Newtons, ...)
Angles are in degrees.

endheader
time	pelvis_tilt	pelvis_list	pelvis_rotation	pelvis_tx	pelvis_ty	pelvis_tz	hip_flexion_r	hip_adduction_r	hip_rotation_r	knee_angle_r	knee_angle_r_beta	ankle_angle_r	subtalar_angle_r	mtp_angle_r	hip_flexion_l	hip_adduction_l	hip_rotation_l	knee_angle_l	knee_angle_l_beta	ankle_angle_l	subtalar_angle_l	mtp_angle_l	lumbar_extension	lumbar_bending	lumbar_rotation	arm_flex_r	arm_add_r	arm_rot_r	elbow_flex_r	pro_sup_r	wrist_flex_r	wrist_dev_r	arm_flex_l	arm_add_l	arm_rot_l	elbow_flex_l	pro_sup_l	wrist_flex_l	wrist_dev_l
     27.93750000	     -4.36722814	     -4.84689498	     -1.87307790	      1.00832174	      0.93283776	      0.40046922	     38.45810649	     -5.87493453	     -4.19299356	     49.82388537	     49.82388537	      4.85455680	    -10.72481001	      1.36999660	     12.92598912	     -5.59007778	     -8.31523918	     20.52665895	     20.52665895	     14.65050800	     -7.46079316	     -4.34196416	    -12.87310121	      3.23159066	      2.64388840	      0.72195005	    -15.71352793	     -3.09523915	     85.31734834	     45.30254202	      0.00000000	      0.00000000	     23.73461286	    -16.48115469	      6.60054306	     35.51612469	     46.32707066	      0.00000000	      0.00000000
     27.94900000	     -4.40885996	     -4.78382550	     -1.94314442	      1.00783025	      0.93265906	      0.40033725	     38.43754959	     -5.73930763	     -3.92060439	     46.50092641	     46.50092641	      4.08358134	    -10.17091355	      0.63055453	     12.22380039	     -5.41304453	     -8.18976033	     20.12056687	     20.12056687	     14.72286850	     -7.78181776	     -4.57068690	    -12.77574068	      3.15982924	      2.27279983	      0.10830859	    -14.45478453	     -5.16533842	     78.83967356	     45.56644881	      0.00000000	      0.00000000	     24.76816715	    -17.52460128	      6.65671441	     37.86907731	     46.34811206	      0.00000000	      0.00000000
     27.96050000	     -4.32862293	     -4.77404542	     -2.07615241	      1.00756309	      0.93261344	      0.40025545	     38.11565451	     -5.56021615	     -3.88381718	     43.00139503	     43.00139503	      3.57503777	     -9.32296378	      0.89276150	     11.34765333	     -5.32534176	     -8.26077348	     19.71164950	     19.71164950	     14.94849124	     -7.83364243	     -4.63762201	    -12.92085009	      3.24685334	      2.90709120	     -1.66368061	    -14.85001823	     -5.44349198	     75.12689287	     45.68446765	      0.00000000	      0.00000000	     26.47837487	    -17.71014929	      6.53278279	     39.76578339	     46.39806462	      0.00000000	      0.00000000
     27.97200000	     -4.29951055	     -4.73085398	     -2.24236789	      1.00744842	      0.93242479	      0.40038214	     37.73636353	     -5.41514166	     -4.09369402	     39.43118215	     39.43118215	      2.98249166	     -8.36709773	      1.13046097	     10.45448718	     -5.21089227	     -8.35332006	     19.19742525	     19.19742525	     15.15554228	     -7.84250711	     -4.73509304	    -12.98635253	      3.19315346	      3.38122315	     -2.92898825	    -14.83434688	     -6.14002709	     70.23297993	     45.85654110	      0.00000000	      0.00000000	     27.91192063	    -17.97103821	      6.44016927	     41.96594058	     46.44362456	      0.00000000	      0.00000000
     27.98350000	     -4.35225093	     -4.58158590	     -2.39079682	      1.00746207	      0.93198685	      0.40060942	     37.34008389	     -5.35379926	     -4.42729439	     35.80205141	     35.80205141	      2.11100580	     -7.42136393	      0.87266679	      9.64203320	     -4.98003440	     -8.39851714	     18.66642387	     18.66642387	     15.32042160	     -7.89279363	     -5.11268351	    -12.90804402	      2.98831644	      2.77682048	     -2.27834929	    -13.82354085	     -7.54701223	     62.33348757	     46.13731144	      0.00000000	      0.00000000	     28.09207786	    -19.35698339	      6.34872988	     45.62361399	     46.49633727	      0.00000000	      0.00000000
     27.99500000	     -4.34698661	     -4.50831391	     -2.56391880	      1.00773557	      0.93157988	      0.40086887	     36.73378008	     -5.20609257	     -5.06654300	     32.18144876	     32.18144876	      1.59528640	     -6.14553765	      1.54576284	      8.70366811	     -4.85259132	     -8.65950070	     18.07642718	     18.07642718	     15.52981601	     -7.69702937	     -5.18869987	    -12.97591328	      2.99537271	      3.40534484	     -4.09752468	    -14.40992471	     -7.50913300	     59.36950754	     46.21967776	      0.00000000	      0.00000000	     29.48161943	    -19.26950545	      6.13144648	     47.58934736	     46.55590517	      0.00000000	      0.00000000
     28.00650000	     -4.35781427	     -4.22910888	     -2.73097063	      1.00834853	      0.93088624	      0.40121294	     36.16312949	     -5.25012051	     -5.76692546	     28.86686845	     28.86686845	      1.37421260	     -4.60823426	      2.30693225	      7.72141414	     -4.50233216	     -8.97814942	     17.39627197	     17.39627197	     15.66114570	     -7.38790019	     -5.72128387	    -12.81328766	      2.67298591	      3.08653966	     -3.31208293	    -13.94239021	     -8.22819966	     51.24640136	     46.48459314	      0.00000000	      0.00000000	     29.55566503	    -20.33965377	      5.77538147	     51.69622613	     46.65252813	      0.00000000	      0.00000000
     28.01800000	     -4.26818427	     -4.11097398	     -2.89812480	      1.00917123	      0.93019304	      0.40173119	     35.36851468	     -5.07552848	     -6.61772776	     25.67419961	     25.67419961	      1.13886642	     -3.11472944	      3.19810961	      6.61148452	     -4.32829150	     -9.28125049	     16.73270628	     16.73270628	     15.99736486	     -7.08051373	     -5.87875661	    -12.91913354	      2.61193684	      3.77487702	     -5.04187737	    -14.41547162	     -8.10960740	     48.68359045	     46.54928847	      0.00000000	      0.00000000	     30.80735205	    -20.22992058	      5.44796706	     53.76106149	     46.72331830	      0.00000000	      0.00000000
     28.02950000	     -4.23037723	     -3.81939457	     -3.04725601	      1.01023153	      0.92923812	      0.40231604	     34.77670011	     -5.10126774	     -7.56578065	     23.12581262	     23.12581262	      1.67132344	     -1.25626296	      5.61917139	      5.51766195	     -3.97895456	     -9.70600690	     15.98825564	     15.98825564	     16.11770894	     -6.54407604	     -6.57339260	    -12.79506306	      2.24871689	      3.28230322	     -4.12349814	    -14.16528519	     -8.32855291	     41.13141489	     46.76798198	      0.00000000	      0.00000000	     30.44710636	    -21.36499846	      4.67108317	     58.36486911	     46.87254344	      0.00000000	      0.00000000
     28.04100000	     -4.14403945	     -3.58031740	     -3.16145726	      1.01152910	      0.92816230	      0.40300338	     34.10184512	     -5.04886798	     -8.49108441	     20.91294777	     20.91294777	      2.25964186	      0.33646755	      7.96923458	      4.35454607	     -3.67353810	    -10.04526994	     15.25029707	     15.25029707	     16.39354584	     -6.03180481	     -6.96130412	    -12.77315035	      1.99778301	      3.33855992	     -4.68609358	    -14.33598361	     -8.10909717	     36.90176400	     46.82245050	      0.00000000	      0.00000000	     30.68338394	    -21.68275708	      3.67952774	     61.82810692	     47.04043785	      0.00000000	      0.00000000
     28.05250000	     -4.01162496	     -3.33172543	     -3.24177028	      1.01305917	      0.92692715	      0.40379608	     33.34288398	     -5.00286742	     -9.41878036	     19.01099944	     19.01099944	      2.44293378	      1.72885179	      8.83879676	      3.14437728	     -3.36779251	    -10.39718680	     14.54459181	     14.54459181	     16.79178797	     -5.40314919	     -7.19265064	    -12.79831381	      1.73382181	      4.02964211	     -6.38495994	    -14.60473649	     -7.96118869	     34.75906296	     46.86554795	      0.00000000	      0.00000000	     31.69459199	    -21.38683091	      3.45450051	     64.20771897	     47.11147825	      0.00000000	      0.00000000
     28.06400000	     -3.95741272	     -3.11465379	     -3.23524839	      1.01479138	      0.92541165	      0.40467433	     32.72952153	     -4.96895960	    -10.30772813	     17.68499026	     17.68499026	      3.18311102	      2.90874143	     10.79395262	      2.09798914	     -3.14618988	    -10.79886791	     14.00337878	     14.00337878	     17.18847053	     -4.56352583	     -7.60243042	    -12.66324643	      1.51712790	      3.67545962	     -6.60933554	    -14.63835860	     -7.85875520	     30.77007148	     46.95354040	      0.00000000	      0.00000000	     31.34447595	    -22.20455564	      2.87129178	     68.25984004	     47.24949854	      0.00000000	      0.00000000
     28.07550000	     -3.86847983	     -2.89273478	     -3.18890128	      1.01670668	      0.92381934	      0.40566559	     32.02630102	     -4.92876833	    -11.03877944	     16.60474766	     16.60474766	      3.33739148	      3.69819618	     11.19238346	      0.98909456	     -2.89772012	    -11.00739096	     13.42855217	     13.42855217	     17.64513654	     -3.94172475	     -7.72511141	    -12.57827093	      1.29525418	      4.22485503	     -8.35076963	    -14.76763122	     -7.74530420	     29.33028621	     46.97668175	      0.00000000	      0.00000000	     32.13337667	    -21.84031231	      2.55889690	     70.52771108	     47.32362181	      0.00000000	      0.00000000
     28.08700000	     -3.82727128	     -2.69646458	     -3.07467208	      1.01872911	      0.92203964	      0.40671439	     31.36251812	     -4.89906699	    -11.67660482	     15.87501942	     15.87501942	      3.46437944	      4.27027024	     11.36711920	      0.01679710	     -2.71581905	    -11.20118077	     13.00618803	     13.00618803	     18.10915991	     -3.26693068	     -7.85583808	    -12.39537117	      1.10562760	      4.59849141	     -9.98050428	    -14.81650276	     -7.66447381	     28.12092868	     46.99823290	      0.00000000	      0.00000000	     32.66174954	    -21.58641686	      2.36364922	     72.94441638	     47.38817182	      0.00000000	      0.00000000
     28.09850000	     -3.80741301	     -2.50578537	     -2.89460309	      1.02092839	      0.92014514	      0.40787602	     30.76239940	     -4.91791098	    -12.25248056	     15.55523533	     15.55523533	      3.49894436	      4.67008353	     11.20427711	     -0.87377519	     -2.59509070	    -11.46152460	     12.72402168	     12.72402168	     18.66293577	     -2.39028991	     -7.93135199	    -12.23266402	      0.91550112	      4.81020297	    -11.50618958	    -14.78680523	     -7.60867501	     27.08424442	     47.01307754	      0.00000000	      0.00000000	     32.81925011	    -21.53503248	      2.12006843	     75.99092508	     47.46712410	      0.00000000	      0.00000000
     28.11000000	     -3.85058643	     -2.37777364	     -2.64123634	      1.02319914	      0.91813698	      0.40923053	     30.19039281	     -4.88261395	    -12.63888579	     15.39210107	     15.39210107	      2.94658559	      4.72456966	      9.78565074	     -1.48693493	     -2.67676683	    -11.95741813	     12.90428018	     12.90428018	     19.62265071	     -0.93162712	     -7.49221185	    -11.98573093	      0.76358500	      3.97003494	    -12.39281570	    -14.78395229	     -7.51492902	     26.49689927	     46.98987437	      0.00000000	      0.00000000	     31.75036332	    -22.47239744	      1.13089762	     80.47995436	     47.63279504	      0.00000000	      0.00000000
